<svg width="98" height="97" xmlns="http://www.w3.org/2000/svg" xmlns:xlink="http://www.w3.org/1999/xlink" xml:space="preserve" overflow="hidden"><g transform="translate(-438 -533)"><g><g><g><g><path d="M471.1 570C463.9 576 460 581.5 458.8 584.4 452.1 600.6 461.9 616.3 469 620.2L471.6 621.6 470.4 618.9C467.8 613 465 601.8 473.9 590.7 473.4 595.4 473.4 603.6 478.7 610 485.7 618.6 485.8 625 485.8 625.1L485.8 626.1 486.8 626.1C499 626.1 510.1 618.7 514.7 607.4 518.2 600.6 518.8 589.6 513.7 582.8L510.8 578.9 512 583.6C512.7 586.9 511.6 590.2 509 592.4 506.6 594.6 503.2 595.2 500.2 593.9 497.6 593 495.6 591 494.8 588.5 493.9 585.5 494.5 582.3 496.4 579.9 500.7 574 502 566.3 500 558.6 497.6 549.5 491.1 541.9 482.4 538.1L479.8 537 481.1 539.5C488.7 553.8 475.3 566.5 471.1 570ZM485 541.7C491.4 545.6 496.1 551.8 498 559.1 499.9 566.2 498.7 573.3 494.6 578.7 492.4 581.7 491.7 585.5 492.8 589.1 493.8 592.2 496.3 594.7 499.4 595.8 503.1 597.3 507.3 596.6 510.2 593.9 512.2 592.2 513.5 589.9 513.9 587.4 516.3 593.4 515.4 601.4 512.8 606.5 508.6 616.8 498.8 623.7 487.7 624.1 487.4 621.8 486.2 616 480.2 608.8 473.3 600.4 476.3 588.2 476.4 587.7L477.3 584.1 474.7 586.8C463.8 598.1 465.2 610 467.3 616.7 461.3 611.3 455.1 598.5 460.5 585.3 461.7 582.4 465.8 577 472.2 571.7 481 564.4 488.3 552.9 483.9 541.3 484.1 541.1 484.7 541.5 485 541.7Z" fill="#000000" fill-rule="nonzero" fill-opacity="1"/></g></g></g></g></g></svg>